<svg width="28" height="20" viewBox="0 0 28 20" fill="none" xmlns="http://www.w3.org/2000/svg">
<path d="M23.2639 8.81584C22.6812 4.2265 18.7505 0.666504 14.0052 0.666504C10.3305 0.666504 7.13854 2.8145 5.68121 6.19984C2.81721 7.05584 0.671875 9.75984 0.671875 12.6665C0.671875 16.3425 3.66254 19.3332 7.33854 19.3332H8.67188V16.6665H7.33854C5.13321 16.6665 3.33854 14.8718 3.33854 12.6665C3.33854 10.7945 4.93721 8.9905 6.90254 8.64517L7.67721 8.50917L7.93321 7.76517C8.87054 5.0305 11.1972 3.33317 14.0052 3.33317C17.6812 3.33317 20.6719 6.32384 20.6719 9.99984V11.3332H22.0052C23.4759 11.3332 24.6719 12.5292 24.6719 13.9998C24.6719 15.4705 23.4759 16.6665 22.0052 16.6665H19.3385V19.3332H22.0052C24.9465 19.3332 27.3385 16.9412 27.3385 13.9998C27.337 12.8045 26.9347 11.6443 26.196 10.7045C25.4574 9.76474 24.425 9.09975 23.2639 8.81584Z" fill="#FAFAFA"/>
<path d="M15.3385 12.6665V7.33317H12.6719V12.6665H8.67188L14.0052 19.3332L19.3385 12.6665H15.3385Z" fill="#FAFAFA"/>
</svg>
